<svg width="1920" height="1080" viewBox="0 0 1920 1080" fill="none" xmlns="http://www.w3.org/2000/svg">
  <!-- Background gradient -->
  <defs>
    <linearGradient id="bgGradient" x1="0%" y1="0%" x2="0%" y2="100%">
      <stop offset="0%" style="stop-color:#1e3a8a;stop-opacity:1" />
      <stop offset="50%" style="stop-color:#1e40af;stop-opacity:1" />
      <stop offset="100%" style="stop-color:#0f172a;stop-opacity:1" />
    </linearGradient>
  </defs>
  
  <!-- Background -->
  <rect width="1920" height="1080" fill="url(#bgGradient)"/>
  
  <!-- Port silhouette -->
  <g transform="translate(0, 600)" fill="rgba(0,0,0,0.3)">
    <!-- Cranes -->
    <rect x="100" y="-200" width="8" height="200" />
    <rect x="95" y="-180" width="18" height="8" />
    <rect x="200" y="-250" width="10" height="250" />
    <rect x="195" y="-230" width="20" height="10" />
    <rect x="350" y="-220" width="8" height="220" />
    <rect x="345" y="-200" width="18" height="8" />
    <rect x="500" y="-280" width="12" height="280" />
    <rect x="495" y="-260" width="22" height="12" />
    <rect x="700" y="-240" width="10" height="240" />
    <rect x="695" y="-220" width="20" height="10" />
    
    <!-- Ships -->
    <ellipse cx="150" cy="-20" rx="80" ry="15" />
    <rect x="120" y="-35" width="60" height="15" />
    <ellipse cx="400" cy="-25" rx="100" ry="18" />
    <rect x="360" y="-43" width="80" height="18" />
    <ellipse cx="650" cy="-22" rx="90" ry="16" />
    <rect x="620" y="-38" width="60" height="16" />
    
    <!-- Port buildings -->
    <rect x="800" y="-80" width="60" height="80" />
    <rect x="880" y="-100" width="40" height="100" />
    <rect x="940" y="-60" width="50" height="60" />
    <rect x="1010" y="-120" width="70" height="120" />
    <rect x="1100" y="-90" width="45" height="90" />
    
    <!-- Containers -->
    <rect x="1200" y="-30" width="20" height="30" />
    <rect x="1225" y="-30" width="20" height="30" />
    <rect x="1250" y="-30" width="20" height="30" />
    <rect x="1220" y="-60" width="20" height="30" />
    <rect x="1245" y="-60" width="20" height="30" />
    
    <rect x="1300" y="-40" width="20" height="40" />
    <rect x="1325" y="-40" width="20" height="40" />
    <rect x="1350" y="-40" width="20" height="40" />
    <rect x="1320" y="-80" width="20" height="40" />
    
    <!-- Water line -->
    <rect x="0" y="-5" width="1920" height="5" fill="rgba(59, 130, 246, 0.4)" />
  </g>
  
  <!-- Additional atmospheric elements -->
  <g fill="rgba(255,255,255,0.1)">
    <!-- Clouds -->
    <ellipse cx="300" cy="200" rx="80" ry="30" />
    <ellipse cx="320" cy="190" rx="60" ry="25" />
    <ellipse cx="280" cy="190" rx="50" ry="20" />
    
    <ellipse cx="800" cy="150" rx="100" ry="35" />
    <ellipse cx="825" cy="140" rx="70" ry="28" />
    <ellipse cx="775" cy="140" rx="60" ry="22" />
    
    <ellipse cx="1400" cy="180" rx="90" ry="32" />
    <ellipse cx="1420" cy="170" rx="65" ry="26" />
    <ellipse cx="1380" cy="170" rx="55" ry="20" />
  </g>
</svg>